# xmcd
#
# Track frame offsets: 
#        150
#        12670
#        26810
#        46501
#        64430
#        77215
#        89987
#        106724
#        118983
#        129957
#        146677
#        160314
#        175446
#        188441
#        200828
#        215611
#        235189
#        248740
#
# Disc length: 3504 seconds
#
# Revision: 0
# Processed by: cddbd v1.5.2PL0 Copyright (c) Steve Scherf et al.
# Submitted via: ExactAudioCopyFreeDBPlugin 1.0
#
DISCID=090dae12
DTITLE=Kim Carson Unplugged - Live At Waylon Rümli
DYEAR=1900
DGENRE=Country
TTITLE0=Honky Tonk Girl
TTITLE1=It's Not a Big Deal
TTITLE2=There's Always Something
TTITLE3=Cry Over You
TTITLE4=The Man I Got
TTITLE5=Maybe My Baby
TTITLE6=Missing You
TTITLE7=Just Because You're Gone
TTITLE8=I Only Like You When I'm Drikin'
TTITLE9=Burned By An Old Flame
TTITLE10=One More Shot of Teek Daniels
TTITLE11=Over My Shoulder
TTITLE12=Can You See
TTITLE13=Hank's Songs
TTITLE14=Gettin' On with Getting Over You
TTITLE15=Vaya con Dios
TTITLE16=Buddy Jonson
TTITLE17=Lousiana Christmas
EXTD=
EXTT0=
EXTT1=
EXTT2=
EXTT3=
EXTT4=
EXTT5=
EXTT6=
EXTT7=
EXTT8=
EXTT9=
EXTT10=
EXTT11=
EXTT12=
EXTT13=
EXTT14=
EXTT15=
EXTT16=
EXTT17=
PLAYORDER=
